<?xml version="1.0" encoding="UTF-8" standalone="no"?>
<!-- Created with Inkscape (http://www.inkscape.org/) -->

<svg
   xmlns:dc="http://purl.org/dc/elements/1.1/"
   xmlns:cc="http://creativecommons.org/ns#"
   xmlns:rdf="http://www.w3.org/1999/02/22-rdf-syntax-ns#"
   xmlns:svg="http://www.w3.org/2000/svg"
   xmlns="http://www.w3.org/2000/svg"
   xmlns:sodipodi="http://sodipodi.sourceforge.net/DTD/sodipodi-0.dtd"
   xmlns:inkscape="http://www.inkscape.org/namespaces/inkscape"
   width="43.028976mm"
   height="45.596527mm"
   viewBox="0 0 43.028976 45.596527"
   version="1.1"
   id="svg8"
   inkscape:version="0.92.2 (5c3e80d, 2017-08-06)">
  <defs
     id="defs2" />
  <sodipodi:namedview
     id="base"
     pagecolor="#ffffff"
     bordercolor="#666666"
     borderopacity="1.0"
     inkscape:pageopacity="0.0"
     inkscape:pageshadow="2"
     inkscape:zoom="4.8542881"
     inkscape:cx="62.224297"
     inkscape:cy="75.277474"
     inkscape:document-units="mm"
     inkscape:current-layer="layer1"
     showgrid="false"
     inkscape:window-width="2511"
     inkscape:window-height="1545"
     inkscape:window-x="49"
     inkscape:window-y="27"
     inkscape:window-maximized="1" />
  <metadata
     id="metadata5">
    <rdf:RDF>
      <cc:Work
         rdf:about="">
        <dc:format>image/svg+xml</dc:format>
        <dc:type
           rdf:resource="http://purl.org/dc/dcmitype/StillImage" />
        <dc:title></dc:title>
      </cc:Work>
    </rdf:RDF>
  </metadata>
  <g
     inkscape:label="Layer 1"
     inkscape:groupmode="layer"
     id="layer1"
     transform="translate(-86.569466,-66.544733)">
    <g
       id="g3736">
      <path
         id="path3703"
         transform="matrix(0.26458333,0,0,0.26458333,86.569466,66.544733)"
         d="M 65.134766 8.7402344 C 48.313419 8.7402344 34.185694 15.414333 22.751953 28.763672 C 11.856971 41.514392 6.4101562 56.419651 6.4101562 73.480469 C 6.4101562 90.481426 11.886952 105.23873 22.841797 117.75 C 34.275538 130.85988 48.373282 137.41406 65.134766 137.41406 C 81.89629 137.41406 96.023959 130.88984 107.51758 117.83984 C 114.71314 109.62195 119.52881 100.41512 121.99805 90.234375 C 117.72573 90.200434 112.95221 90.199829 110.91797 90.359375 C 108.9545 90.512937 106.97479 90.734577 104.99023 91.136719 C 104.74366 91.186677 104.46769 91.267389 104.1875 91.355469 C 101.11443 108.79901 93.667974 120.98337 81.835938 127.89648 C 76.208851 131.18891 70.702069 132.83594 65.314453 132.83594 C 59.447896 132.83594 53.791223 131.15896 48.34375 127.80664 C 32.480181 118.04906 24.546875 99.132171 24.546875 71.056641 C 24.546875 44.836861 32.390238 27.147248 48.074219 17.988281 C 53.521702 14.815569 59.208391 13.230469 65.134766 13.230469 C 71.180901 13.230469 76.957493 14.845551 82.464844 18.078125 C 98.029115 27.177229 105.81055 44.836861 105.81055 71.056641 C 105.81055 74.083174 105.70104 76.978405 105.52148 79.789062 L 123.69141 79.789062 C 123.86345 77.72246 123.94922 75.618522 123.94922 73.480469 C 123.94922 56.359791 118.50241 41.454532 107.60742 28.763672 C 96.173696 15.414333 82.016025 8.7402344 65.134766 8.7402344 z "
         style="font-style:normal;font-variant:normal;font-weight:normal;font-stretch:normal;font-size:19.75555611px;line-height:1.25;font-family:Symbola;-inkscape-font-specification:Symbola;letter-spacing:0px;word-spacing:0px;fill:#000000;fill-opacity:1;stroke:none;stroke-width:2.46291518" />
      <g
         transform="matrix(2.4629154,0,0,2.4629154,-91.697585,-87.949187)"
         id="text3701"
         style="font-style:normal;font-weight:normal;font-size:10.58333302px;line-height:1.25;font-family:sans-serif;letter-spacing:0px;word-spacing:0px;fill:#000000;fill-opacity:1;stroke:none;stroke-width:0.26458332"
         aria-label="Oz">
        <path
           inkscape:connector-curvature="0"
           id="path3705"
           style="font-style:normal;font-variant:normal;font-weight:normal;font-stretch:normal;font-size:19.75555611px;font-family:Symbola;-inkscape-font-specification:Symbola;stroke-width:0.26458332"
           d="m 88.965213,76.653174 -0.366558,3.858507 h -6.974251 q -0.366558,0 -0.366558,-0.289388 0,-0.144694 0.173632,-0.376205 l 5.710591,-7.688075 h -2.295812 q -1.620573,0 -2.189703,0.598068 -0.511252,0.549838 -0.598068,2.180057 h -0.511252 l 0.23151,-3.327962 h 6.762034 q 0.366558,0 0.366558,0.270095 0,0.135048 -0.173633,0.366558 l -5.672005,7.64949 h 2.353689 q 1.765267,0 2.392274,-0.781347 0.501606,-0.627008 0.627008,-2.459798 z" />
      </g>
    </g>
  </g>
</svg>
