<svg class="marks" width="533" height="244" viewBox="0 0 533 244" version="1.1" xmlns="http://www.w3.org/2000/svg" xmlns:xlink="http://www.w3.org/1999/xlink"><g transform="translate(45,5)"><g class="mark-group role-frame root"><g transform="translate(0,0)"><path class="background" d="M0.5,0.5h400v200h-400Z" style="fill: none; stroke: #ddd;"></path><g><g class="mark-group role-axis"><g transform="translate(0.5,0.5)"><path class="background" d="M0,0h0v0h0Z" style="pointer-events: none; fill: none;"></path><g><g class="mark-rule role-axis-grid" style="pointer-events: none;"><line transform="translate(0,200)" x2="400" y2="0" style="fill: none; stroke: #ddd; stroke-width: 1; opacity: 1;"></line><line transform="translate(0,158)" x2="400" y2="0" style="fill: none; stroke: #ddd; stroke-width: 1; opacity: 1;"></line><line transform="translate(0,117)" x2="400" y2="0" style="fill: none; stroke: #ddd; stroke-width: 1; opacity: 1;"></line><line transform="translate(0,75)" x2="400" y2="0" style="fill: none; stroke: #ddd; stroke-width: 1; opacity: 1;"></line><line transform="translate(0,33)" x2="400" y2="0" style="fill: none; stroke: #ddd; stroke-width: 1; opacity: 1;"></line></g></g></g></g><g class="mark-group role-axis"><g transform="translate(0.5,200.5)"><path class="background" d="M0,0h0v0h0Z" style="pointer-events: none; fill: none;"></path><g><g class="mark-rule role-axis-tick" style="pointer-events: none;"><line transform="translate(9,0)" x2="0" y2="5" style="fill: none; stroke: #888; stroke-width: 1; opacity: 1;"></line><line transform="translate(29,0)" x2="0" y2="5" style="fill: none; stroke: #888; stroke-width: 1; opacity: 1;"></line><line transform="translate(49,0)" x2="0" y2="5" style="fill: none; stroke: #888; stroke-width: 1; opacity: 1;"></line><line transform="translate(69,0)" x2="0" y2="5" style="fill: none; stroke: #888; stroke-width: 1; opacity: 1;"></line><line transform="translate(89,0)" x2="0" y2="5" style="fill: none; stroke: #888; stroke-width: 1; opacity: 1;"></line><line transform="translate(109,0)" x2="0" y2="5" style="fill: none; stroke: #888; stroke-width: 1; opacity: 1;"></line><line transform="translate(129,0)" x2="0" y2="5" style="fill: none; stroke: #888; stroke-width: 1; opacity: 1;"></line><line transform="translate(149,0)" x2="0" y2="5" style="fill: none; stroke: #888; stroke-width: 1; opacity: 1;"></line><line transform="translate(169,0)" x2="0" y2="5" style="fill: none; stroke: #888; stroke-width: 1; opacity: 1;"></line><line transform="translate(189,0)" x2="0" y2="5" style="fill: none; stroke: #888; stroke-width: 1; opacity: 1;"></line><line transform="translate(209,0)" x2="0" y2="5" style="fill: none; stroke: #888; stroke-width: 1; opacity: 1;"></line><line transform="translate(229,0)" x2="0" y2="5" style="fill: none; stroke: #888; stroke-width: 1; opacity: 1;"></line><line transform="translate(249,0)" x2="0" y2="5" style="fill: none; stroke: #888; stroke-width: 1; opacity: 1;"></line><line transform="translate(269,0)" x2="0" y2="5" style="fill: none; stroke: #888; stroke-width: 1; opacity: 1;"></line><line transform="translate(289,0)" x2="0" y2="5" style="fill: none; stroke: #888; stroke-width: 1; opacity: 1;"></line><line transform="translate(309,0)" x2="0" y2="5" style="fill: none; stroke: #888; stroke-width: 1; opacity: 1;"></line><line transform="translate(329,0)" x2="0" y2="5" style="fill: none; stroke: #888; stroke-width: 1; opacity: 1;"></line><line transform="translate(349,0)" x2="0" y2="5" style="fill: none; stroke: #888; stroke-width: 1; opacity: 1;"></line><line transform="translate(369,0)" x2="0" y2="5" style="fill: none; stroke: #888; stroke-width: 1; opacity: 1;"></line><line transform="translate(389,0)" x2="0" y2="5" style="fill: none; stroke: #888; stroke-width: 1; opacity: 1;"></line></g><g class="mark-text role-axis-label" style="pointer-events: none;"><text text-anchor="end" transform="translate(9,7) rotate(270) translate(0,3)" style="font-family: sans-serif; font-size: 10px; fill: #000; opacity: 1;">0</text><text text-anchor="end" transform="translate(29,7) rotate(270) translate(0,3)" style="font-family: sans-serif; font-size: 10px; fill: #000; opacity: 1;">1</text><text text-anchor="end" transform="translate(49,7) rotate(270) translate(0,3)" style="font-family: sans-serif; font-size: 10px; fill: #000; opacity: 1;">2</text><text text-anchor="end" transform="translate(69,7) rotate(270) translate(0,3)" style="font-family: sans-serif; font-size: 10px; fill: #000; opacity: 1;">3</text><text text-anchor="end" transform="translate(89,7) rotate(270) translate(0,3)" style="font-family: sans-serif; font-size: 10px; fill: #000; opacity: 1;">4</text><text text-anchor="end" transform="translate(109,7) rotate(270) translate(0,3)" style="font-family: sans-serif; font-size: 10px; fill: #000; opacity: 1;">5</text><text text-anchor="end" transform="translate(129,7) rotate(270) translate(0,3)" style="font-family: sans-serif; font-size: 10px; fill: #000; opacity: 1;">6</text><text text-anchor="end" transform="translate(149,7) rotate(270) translate(0,3)" style="font-family: sans-serif; font-size: 10px; fill: #000; opacity: 1;">7</text><text text-anchor="end" transform="translate(169,7) rotate(270) translate(0,3)" style="font-family: sans-serif; font-size: 10px; fill: #000; opacity: 1;">8</text><text text-anchor="end" transform="translate(189,7) rotate(270) translate(0,3)" style="font-family: sans-serif; font-size: 10px; fill: #000; opacity: 1;">9</text><text text-anchor="end" transform="translate(209,7) rotate(270) translate(0,3)" style="font-family: sans-serif; font-size: 10px; fill: #000; opacity: 1;">10</text><text text-anchor="end" transform="translate(229,7) rotate(270) translate(0,3)" style="font-family: sans-serif; font-size: 10px; fill: #000; opacity: 1;">11</text><text text-anchor="end" transform="translate(249,7) rotate(270) translate(0,3)" style="font-family: sans-serif; font-size: 10px; fill: #000; opacity: 1;">12</text><text text-anchor="end" transform="translate(269,7) rotate(270) translate(0,3)" style="font-family: sans-serif; font-size: 10px; fill: #000; opacity: 1;">13</text><text text-anchor="end" transform="translate(289,7) rotate(270) translate(0,3)" style="font-family: sans-serif; font-size: 10px; fill: #000; opacity: 1;">14</text><text text-anchor="end" transform="translate(309,7) rotate(270) translate(0,3)" style="font-family: sans-serif; font-size: 10px; fill: #000; opacity: 1;">15</text><text text-anchor="end" transform="translate(329,7) rotate(270) translate(0,3)" style="font-family: sans-serif; font-size: 10px; fill: #000; opacity: 1;">16</text><text text-anchor="end" transform="translate(349,7) rotate(270) translate(0,3)" style="font-family: sans-serif; font-size: 10px; fill: #000; opacity: 1;">17</text><text text-anchor="end" transform="translate(369,7) rotate(270) translate(0,3)" style="font-family: sans-serif; font-size: 10px; fill: #000; opacity: 1;">18</text><text text-anchor="end" transform="translate(389,7) rotate(270) translate(0,3)" style="font-family: sans-serif; font-size: 10px; fill: #000; opacity: 1;">19</text></g><g class="mark-rule role-axis-domain" style="pointer-events: none;"><line transform="translate(0,0)" x2="400" y2="0" style="fill: none; stroke: #888; stroke-width: 1; opacity: 1;"></line></g><g class="mark-text role-axis-title" style="pointer-events: none;"><text text-anchor="middle" transform="translate(200,32)" style="font-family: sans-serif; font-size: 11px; font-weight: bold; fill: #000; opacity: 1;">time</text></g></g></g></g><g class="mark-group role-axis"><g transform="translate(0.5,0.5)"><path class="background" d="M0,0h0v0h0Z" style="pointer-events: none; fill: none;"></path><g><g class="mark-rule role-axis-tick" style="pointer-events: none;"><line transform="translate(0,200)" x2="-5" y2="0" style="fill: none; stroke: #888; stroke-width: 1; opacity: 1;"></line><line transform="translate(0,158)" x2="-5" y2="0" style="fill: none; stroke: #888; stroke-width: 1; opacity: 1;"></line><line transform="translate(0,117)" x2="-5" y2="0" style="fill: none; stroke: #888; stroke-width: 1; opacity: 1;"></line><line transform="translate(0,75)" x2="-5" y2="0" style="fill: none; stroke: #888; stroke-width: 1; opacity: 1;"></line><line transform="translate(0,33)" x2="-5" y2="0" style="fill: none; stroke: #888; stroke-width: 1; opacity: 1;"></line></g><g class="mark-text role-axis-label" style="pointer-events: none;"><text text-anchor="end" transform="translate(-7,203)" style="font-family: sans-serif; font-size: 10px; fill: #000; opacity: 1;">0</text><text text-anchor="end" transform="translate(-7,161.33333333333331)" style="font-family: sans-serif; font-size: 10px; fill: #000; opacity: 1;">50</text><text text-anchor="end" transform="translate(-7,119.66666666666666)" style="font-family: sans-serif; font-size: 10px; fill: #000; opacity: 1;">100</text><text text-anchor="end" transform="translate(-7,78)" style="font-family: sans-serif; font-size: 10px; fill: #000; opacity: 1;">150</text><text text-anchor="end" transform="translate(-7,36.333333333333314)" style="font-family: sans-serif; font-size: 10px; fill: #000; opacity: 1;">200</text></g><g class="mark-rule role-axis-domain" style="pointer-events: none;"><line transform="translate(0,200)" x2="0" y2="-200" style="fill: none; stroke: #888; stroke-width: 1; opacity: 1;"></line></g><g class="mark-text role-axis-title" style="pointer-events: none;"><text text-anchor="middle" transform="translate(-29,100) rotate(-90) translate(0,-2)" style="font-family: sans-serif; font-size: 11px; font-weight: bold; fill: #000; opacity: 1;">Sum of quantity</text></g></g></g></g><g class="mark-rect role-mark marks"><path d="M1,191.66666666666666h18v4.166666666666686h-18Z" style="fill: #72b7b2;"></path><path d="M21,183.7284764334429h18v8.565026369242986h-18Z" style="fill: #72b7b2;"></path><path d="M41,173.49272189201653h18v12.657989033313584h-18Z" style="fill: #72b7b2;"></path><path d="M61,165.695825944028h18v16.42557174382148h-18Z" style="fill: #72b7b2;"></path><path d="M81,161.6906576115647h18v14.166666666666686h-18Z" style="fill: #72b7b2;"></path><path d="M101,157.1730599668013h18v18.439208329833974h-18Z" style="fill: #72b7b2;"></path><path d="M121,150.3997242314262h18v23.442158229634543h-18Z" style="fill: #72b7b2;"></path><path d="M141,142.9887786727208h18v23.362635748686216h-18Z" style="fill: #72b7b2;"></path><path d="M161,136.57356831910212h18v28.214681687896643h-18Z" style="fill: #72b7b2;"></path><path d="M181,127.79656751198245h18v31.341823345849164h-18Z" style="fill: #72b7b2;"></path><path d="M201,126.63947209266036h18v31.91844024672912h-18Z" style="fill: #72b7b2;"></path><path d="M221,122.25465305832795h18v33.283889516800755h-18Z" style="fill: #72b7b2;"></path><path d="M241,119.63066055183806h18v33.776329137075905h-18Z" style="fill: #72b7b2;"></path><path d="M261,115.42480077555282h18v35.89970334387087h-18Z" style="fill: #72b7b2;"></path><path d="M281,107.96262343478269h18v36.3239586057213h-18Z" style="fill: #72b7b2;"></path><path d="M301,97.23756257675183h18v44.21852829707109h-18Z" style="fill: #72b7b2;"></path><path d="M321,98.24401106626448h18v42.919108440277284h-18Z" style="fill: #72b7b2;"></path><path d="M341,95.97712949351663h18v44.92773822648232h-18Z" style="fill: #72b7b2;"></path><path d="M361,88.76603549486151h18v46.91286069845842h-18Z" style="fill: #72b7b2;"></path><path d="M381,84.10702658195281h18v50.54270264729779h-18Z" style="fill: #72b7b2;"></path><path d="M1,198.33333333333334h18v1.6666666666666572h-18Z" style="fill: #eeca3b;"></path><path d="M21,196.98008473467627h18v3.019915265323732h-18Z" style="fill: #eeca3b;"></path><path d="M41,191.4086887959984h18v8.591311204001613h-18Z" style="fill: #eeca3b;"></path><path d="M61,190.2273655105914h18v9.772634489408603h-18Z" style="fill: #eeca3b;"></path><path d="M81,188.34532880578234h18v11.654671194217656h-18Z" style="fill: #eeca3b;"></path><path d="M101,186.55613414831762h18v13.443865851682375h-18Z" style="fill: #eeca3b;"></path><path d="M121,187.33760789719705h18v12.662392102802954h-18Z" style="fill: #eeca3b;"></path><path d="M141,182.34237387737016h18v17.657626122629836h-18Z" style="fill: #eeca3b;"></path><path d="M161,182.39412500349937h18v17.60587499650063h-18Z" style="fill: #eeca3b;"></path><path d="M181,179.98586209558246h18v20.014137904417538h-18Z" style="fill: #eeca3b;"></path><path d="M201,180.9456228363614h18v19.054377163638605h-18Z" style="fill: #eeca3b;"></path><path d="M221,176.935937954231h18v23.064062045768992h-18Z" style="fill: #eeca3b;"></path><path d="M241,176.2868281777903h18v23.713171822209688h-18Z" style="fill: #eeca3b;"></path><path d="M261,175.66225205971185h18v24.337747940288153h-18Z" style="fill: #eeca3b;"></path><path d="M281,171.72662435358532h18v28.273375646414678h-18Z" style="fill: #eeca3b;"></path><path d="M301,171.14471210357812h18v28.855287896421885h-18Z" style="fill: #eeca3b;"></path><path d="M321,172.24822641993757h18v27.751773580062434h-18Z" style="fill: #eeca3b;"></path><path d="M341,170.86910052666616h18v29.13089947333384h-18Z" style="fill: #eeca3b;"></path><path d="M361,168.67278142999328h18v31.32721857000672h-18Z" style="fill: #eeca3b;"></path><path d="M381,168.15819794795863h18v31.841802052041373h-18Z" style="fill: #eeca3b;"></path><path d="M1,189.16666666666666h18v0.8333333333333428h-18Z" style="fill: #f58518;"></path><path d="M21,176.695428251525h18v3.673520571067229h-18Z" style="fill: #f58518;"></path><path d="M41,163.10022659558234h18v4.327468927191205h-18Z" style="fill: #f58518;"></path><path d="M61,153.9458940794332h18v4.832955112329415h-18Z" style="fill: #f58518;"></path><path d="M81,147.11569182598575h18v6.083643418932041h-18Z" style="fill: #f58518;"></path><path d="M101,137.41242094984173h18v8.105967822741917h-18Z" style="fill: #f58518;"></path><path d="M121,128.89282223009158h18v9.24799692417983h-18Z" style="fill: #f58518;"></path><path d="M141,118.15394490612299h18v10.352396083888706h-18Z" style="fill: #f58518;"></path><path d="M161,110.98132990861399h18v11.425571743821465h-18Z" style="fill: #f58518;"></path><path d="M181,98.17361211636629h18v13.305508471031871h-18Z" style="fill: #f58518;"></path><path d="M201,93.87120499335677h18v14.329058769469626h-18Z" style="fill: #f58518;"></path><path d="M221,88.05360461397895h18v14.498971134751343h-18Z" style="fill: #f58518;"></path><path d="M241,85.70438873095256h18v15.484113591250946h-18Z" style="fill: #f58518;"></path><path d="M261,77.64346519487404h18v15.619619121849965h-18Z" style="fill: #f58518;"></path><path d="M281,68.85967014033554h18v18.240317545760917h-18Z" style="fill: #f58518;"></path><path d="M301,56.843586183457916h18v18.34747123775088h-18Z" style="fill: #f58518;"></path><path d="M321,54.92050448206663h18v20.1088248963012h-18Z" style="fill: #f58518;"></path><path d="M341,51.41681732355241h18v19.358642283128347h-18Z" style="fill: #f58518;"></path><path d="M361,39.659811571203164h18v21.931067244475855h-18Z" style="fill: #f58518;"></path><path d="M381,35.477510170773115h18v21.99347829006254h-18Z" style="fill: #f58518;"></path><path d="M1,190h18v1.6666666666666572h-18Z" style="fill: #e45756;"></path><path d="M21,180.36894882259222h18v3.3595276108506766h-18Z" style="fill: #e45756;"></path><path d="M41,167.42769552277355h18v6.065026369242986h-18Z" style="fill: #e45756;"></path><path d="M61,158.77884919176262h18v6.916976752265384h-18Z" style="fill: #e45756;"></path><path d="M81,153.1993352449178h18v8.491322366646898h-18Z" style="fill: #e45756;"></path><path d="M101,145.51838877258365h18v11.654671194217656h-18Z" style="fill: #e45756;"></path><path d="M121,138.1408191542714h18v12.258905077154793h-18Z" style="fill: #e45756;"></path><path d="M141,128.5063409900117h18v14.482437682709104h-18Z" style="fill: #e45756;"></path><path d="M161,122.40690165243545h18v14.166666666666671h-18Z" style="fill: #e45756;"></path><path d="M181,111.47912058739816h18v16.31744692458429h-18Z" style="fill: #e45756;"></path><path d="M201,108.2002637628264h18v18.43920832983396h-18Z" style="fill: #e45756;"></path><path d="M221,102.55257574873029h18v19.702077309597655h-18Z" style="fill: #e45756;"></path><path d="M241,101.1885023222035h18v18.442158229634558h-18Z" style="fill: #e45756;"></path><path d="M261,93.263084316724h18v22.16171645882882h-18Z" style="fill: #e45756;"></path><path d="M281,87.09998768609645h18v20.86263574868623h-18Z" style="fill: #e45756;"></path><path d="M301,75.1910574212088h18v22.04650515554303h-18Z" style="fill: #e45756;"></path><path d="M321,75.02932937836783h18v23.214681687896643h-18Z" style="fill: #e45756;"></path><path d="M341,70.77545960668076h18v25.201669886835873h-18Z" style="fill: #e45756;"></path><path d="M361,61.59087881567902h18v27.175156679182493h-18Z" style="fill: #e45756;"></path><path d="M381,57.470988460835656h18v26.636038121117153h-18Z" style="fill: #e45756;"></path><path d="M1,195.83333333333334h18v2.5h-18Z" style="fill: #54a24b;"></path><path d="M21,192.29350280268588h18v4.686581931990389h-18Z" style="fill: #54a24b;"></path><path d="M41,186.15071092533012h18v5.25797787066827h-18Z" style="fill: #54a24b;"></path><path d="M61,182.12139768784948h18v8.105967822741917h-18Z" style="fill: #54a24b;"></path><path d="M81,175.85732427823137h18v12.48800452755097h-18Z" style="fill: #54a24b;"></path><path d="M101,175.61226829663528h18v10.943865851682347h-18Z" style="fill: #54a24b;"></path><path d="M121,173.84188246106075h18v13.495725436136297h-18Z" style="fill: #54a24b;"></path><path d="M141,166.35141442140701h18v15.99095945596315h-18Z" style="fill: #54a24b;"></path><path d="M161,164.78825000699877h18v17.605874996500603h-18Z" style="fill: #54a24b;"></path><path d="M181,159.1383908578316h18v20.847471237750852h-18Z" style="fill: #54a24b;"></path><path d="M201,158.55791233938947h18v22.38771049697192h-18Z" style="fill: #54a24b;"></path><path d="M221,155.5385425751287h18v21.397395379102306h-18Z" style="fill: #54a24b;"></path><path d="M241,153.40698968891397h18v22.879838488876345h-18Z" style="fill: #54a24b;"></path><path d="M261,151.3245041194237h18v24.337747940288153h-18Z" style="fill: #54a24b;"></path><path d="M281,144.286582040504h18v27.440042313081335h-18Z" style="fill: #54a24b;"></path><path d="M301,141.45609087382292h18v29.6886212297552h-18Z" style="fill: #54a24b;"></path><path d="M321,141.16311950654176h18v31.085106913395805h-18Z" style="fill: #54a24b;"></path><path d="M341,140.90486771999895h18v29.964232806667212h-18Z" style="fill: #54a24b;"></path><path d="M361,135.67889619331993h18v32.99388523667335h-18Z" style="fill: #54a24b;"></path><path d="M381,134.6497292292506h18v33.50846871870803h-18Z" style="fill: #54a24b;"></path><path d="M1,187.5h18v1.6666666666666572h-18Z" style="fill: #4c78a8;"></path><path d="M21,171.66923397400765h18v5.026194277517334h-18Z" style="fill: #4c78a8;"></path><path d="M41,157.03520022633936h18v6.065026369242986h-18Z" style="fill: #4c78a8;"></path><path d="M61,146.19558399383448h18v7.750310085598727h-18Z" style="fill: #4c78a8;"></path><path d="M81,136.95770279267217h18v10.157989033313584h-18Z" style="fill: #4c78a8;"></path><path d="M101,127.42441642229075h18v9.988004527550984h-18Z" style="fill: #4c78a8;"></path><path d="M121,117.46725048627013h18v11.42557174382145h-18Z" style="fill: #4c78a8;"></path><path d="M141,106.17150722341387h18v11.982437682709119h-18Z" style="fill: #4c78a8;"></path><path d="M161,95.14799657528066h18v15.833333333333329h-18Z" style="fill: #4c78a8;"></path><path d="M181,81.85616519178203h18v16.31744692458426h-18Z" style="fill: #4c78a8;"></path><path d="M201,77.93199666352282h18v15.939208329833946h-18Z" style="fill: #4c78a8;"></path><path d="M221,70.85152730438128h18v17.20207730959767h-18Z" style="fill: #4c78a8;"></path><path d="M241,65.59556383465133h18v20.10882489630123h-18Z" style="fill: #4c78a8;"></path><path d="M261,57.14841540271189h18v20.49504979216215h-18Z" style="fill: #4c78a8;"></path><path d="M281,47.997034391649294h18v20.862635748686245h-18Z" style="fill: #4c78a8;"></path><path d="M301,34.79708102791491h18v22.046505155543002h-18Z" style="fill: #4c78a8;"></path><path d="M321,31.70582279416999h18v23.214681687896643h-18Z" style="fill: #4c78a8;"></path><path d="M341,27.048480770049878h18v24.36833655350253h-18Z" style="fill: #4c78a8;"></path><path d="M361,13.317988225353986h18v26.34182334584918h-18Z" style="fill: #4c78a8;"></path><path d="M381,7.1748053829893195h18v28.302704787783796h-18Z" style="fill: #4c78a8;"></path></g><g class="mark-group role-legend"><g transform="translate(418,0)"><path class="background" d="M0,0h65v92h-65Z" style="pointer-events: none; fill: none;"></path><g><g class="mark-group role-legend-entry"><g transform="translate(0,16)"><path class="background" d="M0,0h0v0h0Z" style="pointer-events: none; fill: none;"></path><g><g class="mark-group role-scope"><g transform="translate(0,0)"><path class="background" d="M0,0h65v11h-65Z" style="pointer-events: none; fill: none; opacity: 1;"></path><g><g class="mark-symbol role-legend-symbol" style="pointer-events: none;"><path transform="translate(6,6)" d="M-5,-5h10v10h-10Z" style="fill: #4c78a8; stroke-width: 1.5; opacity: 1;"></path></g><g class="mark-text role-legend-label" style="pointer-events: none;"><text text-anchor="start" transform="translate(16,9)" style="font-family: sans-serif; font-size: 10px; fill: #000; opacity: 1;">bear</text></g></g></g><g transform="translate(0,13)"><path class="background" d="M0,0h65v11h-65Z" style="pointer-events: none; fill: none; opacity: 1;"></path><g><g class="mark-symbol role-legend-symbol" style="pointer-events: none;"><path transform="translate(6,6)" d="M-5,-5h10v10h-10Z" style="fill: #f58518; stroke-width: 1.5; opacity: 1;"></path></g><g class="mark-text role-legend-label" style="pointer-events: none;"><text text-anchor="start" transform="translate(16,9)" style="font-family: sans-serif; font-size: 10px; fill: #000; opacity: 1;">dog</text></g></g></g><g transform="translate(0,26)"><path class="background" d="M0,0h65v11h-65Z" style="pointer-events: none; fill: none; opacity: 1;"></path><g><g class="mark-symbol role-legend-symbol" style="pointer-events: none;"><path transform="translate(6,6)" d="M-5,-5h10v10h-10Z" style="fill: #e45756; stroke-width: 1.5; opacity: 1;"></path></g><g class="mark-text role-legend-label" style="pointer-events: none;"><text text-anchor="start" transform="translate(16,9)" style="font-family: sans-serif; font-size: 10px; fill: #000; opacity: 1;">lion</text></g></g></g><g transform="translate(0,39)"><path class="background" d="M0,0h65v11h-65Z" style="pointer-events: none; fill: none; opacity: 1;"></path><g><g class="mark-symbol role-legend-symbol" style="pointer-events: none;"><path transform="translate(6,6)" d="M-5,-5h10v10h-10Z" style="fill: #72b7b2; stroke-width: 1.5; opacity: 1;"></path></g><g class="mark-text role-legend-label" style="pointer-events: none;"><text text-anchor="start" transform="translate(16,9)" style="font-family: sans-serif; font-size: 10px; fill: #000; opacity: 1;">munchkin</text></g></g></g><g transform="translate(0,52)"><path class="background" d="M0,0h65v11h-65Z" style="pointer-events: none; fill: none; opacity: 1;"></path><g><g class="mark-symbol role-legend-symbol" style="pointer-events: none;"><path transform="translate(6,6)" d="M-5,-5h10v10h-10Z" style="fill: #54a24b; stroke-width: 1.5; opacity: 1;"></path></g><g class="mark-text role-legend-label" style="pointer-events: none;"><text text-anchor="start" transform="translate(16,9)" style="font-family: sans-serif; font-size: 10px; fill: #000; opacity: 1;">tiger</text></g></g></g><g transform="translate(0,65)"><path class="background" d="M0,0h65v11h-65Z" style="pointer-events: none; fill: none; opacity: 1;"></path><g><g class="mark-symbol role-legend-symbol" style="pointer-events: none;"><path transform="translate(6,6)" d="M-5,-5h10v10h-10Z" style="fill: #eeca3b; stroke-width: 1.5; opacity: 1;"></path></g><g class="mark-text role-legend-label" style="pointer-events: none;"><text text-anchor="start" transform="translate(16,9)" style="font-family: sans-serif; font-size: 10px; fill: #000; opacity: 1;">witch</text></g></g></g></g></g></g></g><g class="mark-text role-legend-title" style="pointer-events: none;"><text text-anchor="start" transform="translate(0,9)" style="font-family: sans-serif; font-size: 11px; font-weight: bold; fill: #000; opacity: 1;">item</text></g></g></g></g></g></g></g></g></svg>